<svg width="48" height="48" viewBox="0 0 48 48" fill="none" xmlns="http://www.w3.org/2000/svg">
<path d="M24.6375 4.49998H24.1575C21.5967 4.48963 19.059 4.98378 16.6892 5.95419C14.3194 6.9246 12.1639 8.35228 10.3459 10.1557C8.52782 11.9591 7.08278 14.103 6.09326 16.4649C5.10374 18.8268 4.58911 21.3604 4.57877 23.9212C4.56843 26.482 5.06257 29.0197 6.03299 31.3895C7.0034 33.7594 8.43108 35.9148 10.2345 37.7329C12.0379 39.5509 14.1818 40.996 16.5437 41.9855C18.9056 42.975 21.4392 43.4896 24 43.5H24.63C29.8017 43.5 34.7617 41.4455 38.4186 37.7886C42.0756 34.1316 44.13 29.1717 44.13 24C44.13 18.8283 42.0756 13.8684 38.4186 10.2114C34.7617 6.55443 29.8017 4.49998 24.63 4.49998H24.6375ZM16.575 9.26998C15.0381 11.6245 13.9592 14.2479 13.395 17.0025H9.06752C10.6402 13.6616 13.2821 10.9406 16.575 9.26998ZM7.50002 24C7.50085 22.6527 7.66454 21.3105 7.98752 20.0025H12.8775C12.7254 21.3295 12.6503 22.6642 12.6525 24C12.6492 25.2528 12.7168 26.5048 12.855 27.75H7.92752C7.64474 26.52 7.50134 25.2621 7.50002 24ZM8.92502 30.75H13.3275C13.8879 33.5937 14.9904 36.303 16.575 38.73C13.1945 37.016 10.4989 34.2013 8.93252 30.75H8.92502ZM22.5 40.14C19.815 39 17.5575 35.4225 16.425 30.75H22.5V40.14ZM22.5 27.75H15.885C15.563 25.1892 15.5756 22.5975 15.9225 20.04H22.5V27.75ZM22.5 17.04H16.5C17.655 12.4725 19.8825 8.99248 22.5 7.89748V17.04ZM38.955 17.04H35.115C34.5755 14.4501 33.5909 11.9734 32.205 9.71998C35.1437 11.4041 37.4985 13.9447 38.955 17.0025V17.04ZM25.5 7.67998C28.35 8.51248 30.75 12.18 32.0175 17.0025H25.5V7.67998ZM25.5 20.0025H32.5875C32.7661 21.3275 32.8563 22.663 32.8575 24C32.8585 25.2536 32.7808 26.5061 32.625 27.75H25.5V20.0025ZM25.5 40.32V30.75H32.085C30.885 35.715 28.4025 39.4725 25.5 40.32ZM32.205 38.3175C33.6373 35.9917 34.6431 33.4291 35.175 30.75H39.0825C37.6419 33.9323 35.2355 36.58 32.205 38.3175ZM35.655 27.75C35.7932 26.5048 35.8608 25.2528 35.8575 24C35.8573 22.6641 35.7796 21.3294 35.625 20.0025H40.02C40.6523 22.5436 40.6754 25.1982 40.0875 27.75H35.655Z" fill="#0055DC"/>
</svg>
