<svg width="48" height="48" viewBox="0 0 48 48" fill="none" xmlns="http://www.w3.org/2000/svg">
<path d="M39.285 30.4425L45.75 24L39.3075 17.5575L37.185 19.68L39.9825 22.5H29.7525C29.5399 21.3765 29.0871 20.3122 28.425 19.38L35.5275 12L35.595 15.9825L38.595 15.93L38.43 6.84L29.325 7.0125L29.3775 10.0125L33.3675 9.945L26.25 17.3025C25.1511 16.5843 23.8923 16.148 22.5847 16.0322C21.2771 15.9164 19.9611 16.1247 18.7532 16.6385C17.5453 17.1524 16.4826 17.9561 15.6592 18.9784C14.8358 20.0008 14.2771 21.2103 14.0325 22.5H12.2775C11.9212 21.4283 11.1951 20.5183 10.2291 19.9331C9.26312 19.3479 8.12039 19.1256 7.00549 19.3061C5.89059 19.4865 4.87633 20.058 4.1443 20.918C3.41226 21.7781 3.01025 22.8706 3.01025 24C3.01025 25.1294 3.41226 26.2219 4.1443 27.082C4.87633 27.942 5.89059 28.5134 7.00549 28.6939C8.12039 28.8744 9.26312 28.6521 10.2291 28.0669C11.1951 27.4817 11.9212 26.5717 12.2775 25.5H14.0325C14.2771 26.7897 14.8358 27.9992 15.6592 29.0216C16.4826 30.0439 17.5453 30.8476 18.7532 31.3615C19.9611 31.8753 21.2771 32.0836 22.5847 31.9678C23.8923 31.852 25.1511 31.4157 26.25 30.6975L33.3525 38.0625L29.3625 37.995L29.31 40.995L38.415 41.1675L38.58 32.0625L35.58 32.01L35.5275 36L28.425 28.62C29.0871 27.6878 29.5399 26.6235 29.7525 25.5H39.9825L37.1625 28.32L39.285 30.4425ZM7.78496 25.755C7.43723 25.758 7.09646 25.6576 6.80588 25.4665C6.51531 25.2755 6.28803 25.0025 6.1529 24.6821C6.01776 24.3617 5.98086 24.0083 6.04688 23.6669C6.11289 23.3255 6.27884 23.0114 6.52368 22.7644C6.76851 22.5175 7.08118 22.3488 7.42202 22.2799C7.76286 22.211 8.1165 22.2448 8.43806 22.3772C8.75962 22.5096 9.0346 22.7345 9.22812 23.0234C9.42163 23.3124 9.52495 23.6523 9.52496 24C9.52497 24.4642 9.3411 24.9094 9.01359 25.2383C8.68608 25.5672 8.24162 25.753 7.77746 25.755H7.78496ZM16.89 24C16.89 23.0088 17.184 22.0399 17.7348 21.2158C18.2857 20.3918 19.0686 19.7496 19.9845 19.3706C20.9004 18.9917 21.9081 18.8929 22.8801 19.0868C23.8522 19.2807 24.7449 19.7586 25.4452 20.4601C26.1456 21.1615 26.6221 22.0549 26.8146 23.0272C27.0071 23.9995 26.9068 25.0071 26.5264 25.9224C26.1461 26.8378 25.5028 27.6197 24.6779 28.1693C23.853 28.7189 22.8837 29.0115 21.8925 29.01C20.565 29.008 19.2926 28.4793 18.3547 27.54C17.4168 26.6006 16.89 25.3274 16.89 24Z" fill="#0055DC"/>
</svg>
