<svg width="48" height="48" viewBox="0 0 48 48" fill="none" xmlns="http://www.w3.org/2000/svg">
<path d="M42 32.3775H39.45V22.0875H25.38V15.5475H27.9L29.4 14.0475V6L27.9 4.5H19.815L18.315 6V14.0475L19.815 15.5475H22.38V22.0875H8.55V32.3775H6L4.5 33.8775V42L6 43.5H14.0925L15.5925 42V33.8775L14.0925 32.3775H11.55V25.0875H22.38V32.3775H19.815L18.315 33.8775V42L19.815 43.5H27.9L29.4 42V33.8775L27.9 32.3775H25.38V25.0875H36.4575V32.3775H33.915L32.415 33.8775V42L33.915 43.5H42L43.5 42V33.8775L42 32.3775ZM21.315 7.5H26.4V12.585H21.315V7.5ZM12.5925 40.5H7.5V35.3775H12.585L12.5925 40.5ZM26.4 40.5H21.315V35.3775H26.4V40.5ZM40.5 40.5H35.415V35.3775H40.5V40.5Z" fill="#0055DC"/>
</svg>
