<svg width="48" height="48" viewBox="0 0 48 48" fill="none" xmlns="http://www.w3.org/2000/svg">
<path d="M43.5 25.455L45 23.955V14.955L43.5 13.455H37.2V6L35.7 4.5H4.5L3 6V15L4.5 16.5H10.7925V22.5H4.5L3 24V33L4.5 34.5H10.7925V42L12.2925 43.5H43.5L45 42V33L43.5 31.5H37.2V25.5L43.5 25.455ZM42 22.455H29.3925V16.5H35.7H42V22.455ZM34.2 7.5V13.5H21.6V7.5H34.2ZM6 7.5H18.6V13.5H12.2925H6V7.5ZM13.7925 16.5H26.3925V22.5H13.7925V16.5ZM6 25.455H18.6V31.455H12.2925H6V25.455ZM13.7925 40.5V34.5H26.3925V40.5H13.7925ZM42 40.5H29.3925V34.5H35.7H42V40.5ZM34.2075 31.5H21.6V25.5H34.2L34.2075 31.5Z" fill="#0055DC"/>
</svg>
