<svg width="48" height="48" viewBox="0 0 48 48" fill="none" xmlns="http://www.w3.org/2000/svg">
<path d="M40.488 15.8632H25.5V11.5275C26.072 11.1973 26.5189 10.6876 26.7717 10.0775C27.0244 9.46734 27.0687 8.79086 26.8978 8.15296C26.7269 7.51506 26.3502 6.95139 25.8263 6.54936C25.3024 6.14733 24.6604 5.92942 24 5.92942C23.3396 5.92942 22.6977 6.14733 22.1737 6.54936C21.6498 6.95139 21.2732 7.51506 21.1022 8.15296C20.9313 8.79086 20.9757 9.46734 21.2284 10.0775C21.4811 10.6876 21.9281 11.1973 22.5 11.5275V15.8632H7.51202L6.01202 17.3632V40.4445L7.51202 41.9445H40.488L41.988 40.4445V17.3632L40.488 15.8632ZM38.988 38.9445H9.01202V18.8632H38.988V38.9445Z" fill="#0055DC"/>
<path d="M17.0077 28.5435C18.3833 28.5435 19.4985 27.426 19.4985 26.0475C19.4985 24.669 18.3833 23.5515 17.0077 23.5515C15.6321 23.5515 14.517 24.669 14.517 26.0475C14.517 27.426 15.6321 28.5435 17.0077 28.5435Z" fill="#0055DC"/>
<path d="M30.9922 28.5435C32.3678 28.5435 33.483 27.426 33.483 26.0475C33.483 24.669 32.3678 23.5515 30.9922 23.5515C29.6166 23.5515 28.5015 24.669 28.5015 26.0475C28.5015 27.426 29.6166 28.5435 30.9922 28.5435Z" fill="#0055DC"/>
<path d="M28.7422 31.749H19.2585V34.749H28.7422V31.749Z" fill="#0055DC"/>
</svg>
