<svg width="48" height="48" viewBox="0 0 48 48" fill="none" xmlns="http://www.w3.org/2000/svg">
<g clip-path="url(#clip0)">
<path d="M25.1401 43.785L25.0876 36.36L22.8976 36.375L22.9576 43.8825L21.0076 42.0075L19.4926 43.5825L24.0976 48.0225L28.5376 43.41L26.9626 41.895L25.1401 43.785Z" fill="#0055DC"/>
<path d="M12.75 4.83752C13.9926 4.83752 15 3.83016 15 2.58752C15 1.34488 13.9926 0.337524 12.75 0.337524C11.5074 0.337524 10.5 1.34488 10.5 2.58752C10.5 3.83016 11.5074 4.83752 12.75 4.83752Z" fill="#0055DC"/>
<path d="M20.25 4.83752C21.4926 4.83752 22.5 3.83016 22.5 2.58752C22.5 1.34488 21.4926 0.337524 20.25 0.337524C19.0074 0.337524 18 1.34488 18 2.58752C18 3.83016 19.0074 4.83752 20.25 4.83752Z" fill="#0055DC"/>
<path d="M27.75 4.83752C28.9926 4.83752 30 3.83016 30 2.58752C30 1.34488 28.9926 0.337524 27.75 0.337524C26.5074 0.337524 25.5 1.34488 25.5 2.58752C25.5 3.83016 26.5074 4.83752 27.75 4.83752Z" fill="#0055DC"/>
<path d="M35.25 4.83752C36.4926 4.83752 37.5 3.83016 37.5 2.58752C37.5 1.34488 36.4926 0.337524 35.25 0.337524C34.0074 0.337524 33 1.34488 33 2.58752C33 3.83016 34.0074 4.83752 35.25 4.83752Z" fill="#0055DC"/>
<path d="M16.65 11.985C17.8927 11.985 18.9 10.9776 18.9 9.73499C18.9 8.49234 17.8927 7.48499 16.65 7.48499C15.4074 7.48499 14.4 8.49234 14.4 9.73499C14.4 10.9776 15.4074 11.985 16.65 11.985Z" fill="#0055DC"/>
<path d="M24.15 11.985C25.3927 11.985 26.4 10.9776 26.4 9.73499C26.4 8.49234 25.3927 7.48499 24.15 7.48499C22.9074 7.48499 21.9 8.49234 21.9 9.73499C21.9 10.9776 22.9074 11.985 24.15 11.985Z" fill="#0055DC"/>
<path d="M31.65 11.985C32.8927 11.985 33.9 10.9776 33.9 9.73499C33.9 8.49234 32.8927 7.48499 31.65 7.48499C30.4074 7.48499 29.4 8.49234 29.4 9.73499C29.4 10.9776 30.4074 11.985 31.65 11.985Z" fill="#0055DC"/>
<path d="M20.175 33.3675L21.675 34.8675H26.325L27.825 33.3675V25.1175L38.475 15.75L37.5 13.155H10.5L9.52502 15.75L20.175 25.0875V33.3675ZM14.4225 16.1175H33.5625L25.3125 23.31L24.8025 24.4275V31.9275H23.13V24.4275L22.6275 23.3175L14.4225 16.1175Z" fill="#0055DC"/>
</g>
<defs>
<clipPath id="clip0">
<rect width="48" height="48" fill="white"/>
</clipPath>
</defs>
</svg>
